<svg xmlns="http://www.w3.org/2000/svg" width="33" height="114" viewBox="0 0 33 114" fill="none">
<rect x="0.572754" y="0.5" width="31" height="113" rx="15.5" fill="#252422"/>
<path d="M21.1708 96.246C21.1708 94.482 20.3588 93.138 19.2948 92.284L18.0488 93.726C18.7768 94.314 19.3088 95.21 19.3088 96.246C19.3088 98.024 17.9788 99.256 16.1308 99.256C14.1428 99.256 12.8828 97.968 12.8828 96.246C12.8828 95.21 13.4568 94.314 14.1428 93.726L12.9108 92.284C11.5808 93.376 11.0068 94.874 11.0068 96.246C11.0068 99.494 13.2888 101.314 16.1308 101.314C19.4068 101.314 21.1708 98.962 21.1708 96.246ZM21.1848 86.1151C21.1848 83.1891 19.1408 81.0611 16.1028 81.0611C13.0648 81.0611 11.0068 83.1891 11.0068 86.1151C11.0068 89.1251 13.1488 91.1831 16.1028 91.1831C19.0428 91.1831 21.1848 89.1251 21.1848 86.1151ZM19.3508 86.1011C19.3508 87.8931 17.9088 89.1391 16.1028 89.1391C14.2968 89.1391 12.8548 87.8931 12.8548 86.1011C12.8548 84.3931 14.2268 83.1051 16.1028 83.1051C17.9648 83.1051 19.3508 84.3931 19.3508 86.1011ZM11.1328 72.8671L17.8528 72.8671L17.8528 72.8811L11.1328 77.3191L11.1328 79.2791L21.0728 79.2791L21.0728 77.3191L14.4788 77.3191L14.4788 77.2911L21.0728 72.9091L21.0728 70.8931L11.1328 70.8931L11.1328 72.8671ZM21.0728 66.6527L21.0728 64.6927L12.8968 64.6927L12.8968 61.9347L11.1328 61.9347L11.1328 69.3967L12.8968 69.3967L12.8968 66.6527L21.0728 66.6527ZM21.0728 54.8616L21.0728 52.8036L11.1328 56.5136L11.1328 58.4036L21.0728 62.0856L21.0728 60.0276L19.0848 59.3556L19.0848 55.5336L21.0728 54.8616ZM17.4048 58.7816L13.4988 57.4656L13.4988 57.4376L17.4048 56.1076L17.4048 58.7816ZM21.1708 47.3554C21.1708 45.5914 20.3588 44.2474 19.2948 43.3934L18.0488 44.8354C18.7768 45.4234 19.3088 46.3194 19.3088 47.3554C19.3088 49.1334 17.9788 50.3654 16.1308 50.3654C14.1428 50.3654 12.8828 49.0774 12.8828 47.3554C12.8828 46.3194 13.4568 45.4234 14.1428 44.8354L12.9108 43.3934C11.5808 44.4854 11.0068 45.9834 11.0068 47.3554C11.0068 50.6034 13.2888 52.4234 16.1308 52.4234C19.4068 52.4234 21.1708 50.0714 21.1708 47.3554ZM21.0728 39.8012L21.0728 37.8412L12.8968 37.8412L12.8968 35.0832L11.1328 35.0832L11.1328 42.5452L12.8968 42.5452L12.8968 39.8012L21.0728 39.8012ZM21.1848 26.032C21.1848 23.47 19.5468 21.986 16.9568 21.986L11.1327 21.986L11.1327 23.96L16.8308 23.96C18.4128 23.96 19.3368 24.828 19.3368 26.032C19.3368 27.334 18.2588 28.062 16.8308 28.062L11.1328 28.062L11.1328 30.036L16.9568 30.036C19.6728 30.036 21.1848 28.412 21.1848 26.032ZM21.1848 16.9335C21.1848 15.3095 20.3027 13.4195 18.1327 13.4195C16.2147 13.4195 15.7667 14.7775 15.0947 16.4995C14.6467 17.6335 14.3808 18.1795 13.7648 18.1655C13.1347 18.1655 12.7707 17.6615 12.7707 16.9755C12.7707 16.3595 13.0647 15.6315 13.7508 14.8055L12.2667 13.6715C11.4547 14.6375 10.9927 15.7855 11.0067 17.0175C11.0348 18.8095 12.2527 20.2095 13.8487 20.2095C15.7247 20.2095 16.4248 18.7115 16.9568 17.2135C17.3627 16.0095 17.6288 15.4775 18.3568 15.4775C18.9728 15.4775 19.4068 15.9535 19.4068 16.9055C19.4068 17.6895 19.0288 18.6415 18.1608 19.3835L19.6168 20.5595C20.6948 19.5235 21.1848 18.2215 21.1848 16.9335Z" fill="#EBE5E0"/>
<rect x="0.572754" y="0.5" width="31" height="113" rx="15.5" stroke="#EBE5E0"/>
</svg>