<svg xmlns="http://www.w3.org/2000/svg" width="33" height="32" viewBox="0 0 33 32" fill="none">
<rect x="0.5" y="0.5" width="31.1455" height="31" rx="15.5" fill="#252422"/>
<path fill-rule="evenodd" clip-rule="evenodd" d="M8.92148 21.454C9.27521 20.7595 9.73765 19.8517 9.8771 19.2242L9.17103 17.106V14.9878L9.52407 12.5166L10.9362 10.3984L12.7014 9.33926L15.8787 8.63319H17.6438L20.8211 10.0453L22.5863 12.5166L22.9393 14.6348V17.459L22.5863 19.5772L19.409 22.0484L16.9378 23.1075H15.5256L14.1135 22.7545L12.2096 21.4925L10.348 21.9579L8.48633 22.4233C8.48633 22.3082 8.67819 21.9316 8.92148 21.454ZM17.2806 15.9592L18.5611 14.2517V14.2506C18.6799 14.0921 18.8745 14.009 19.0713 14.0326C19.268 14.0564 19.4372 14.1832 19.5151 14.3655C19.5929 14.5477 19.5676 14.7578 19.4487 14.9163L17.7844 17.1353C17.6882 17.2645 17.5406 17.3455 17.38 17.3572C17.2197 17.367 17.063 17.3083 16.9484 17.1957V17.1959L15.1815 15.4289L13.9011 17.1364C13.7822 17.2949 13.5876 17.378 13.3909 17.3544C13.1941 17.3306 13.025 17.2038 12.9471 17.0215C12.8692 16.8392 12.8946 16.6292 13.0134 16.4707L14.6777 14.2517C14.7739 14.1225 14.9216 14.0415 15.0822 14.0298C15.2426 14.0197 15.3998 14.0789 15.5137 14.1924V14.1922L17.2806 15.9592Z" fill="#EBE5E0"/>
<path d="M16.2313 7.92735C14.4 7.92512 12.627 8.57091 11.2261 9.7504C9.82523 10.9298 8.8867 12.5669 8.57676 14.3717C8.26681 16.1767 8.60549 18.0331 9.53272 19.6122L11.2782 20.0963C11.2367 20.2211 9.36741 22.3013 9.41657 22.4233C9.4656 22.5453 8.83488 22.362 8.95116 22.4233C9.06756 22.4846 9.28828 21.5211 9.41657 21.4925L12.763 22.6423C14.1651 23.3426 15.7463 23.6021 17.2987 23.3871C18.8512 23.172 20.3022 22.4923 21.4613 21.4373C22.6203 20.3821 23.433 19.0012 23.7925 17.4757C24.1521 15.9502 24.0417 14.3516 23.4758 12.8898C22.91 11.4283 21.9153 10.1721 20.6224 9.28642C19.3293 8.40067 17.7988 7.92697 16.2313 7.92735ZM16.2313 22.3512C15.1393 22.3507 14.0639 22.0816 13.1003 21.5678C12.9834 21.5054 12.8479 21.4869 12.7186 21.5157L9.85541 22.152L10.6665 19.7194C10.72 19.5615 10.6996 19.3879 10.611 19.2467C9.82396 17.9984 9.4744 16.5237 9.61727 15.0549C9.76017 13.5862 10.3874 12.2066 11.4003 11.1333C12.4132 10.06 13.7542 9.35406 15.2123 9.12645C16.6704 8.89885 18.1627 9.1626 19.4545 9.8761C20.7463 10.5896 21.7642 11.7125 22.3478 13.0677C22.9316 14.4232 23.048 15.9342 22.6788 17.3632C22.3097 18.7919 21.4758 20.0575 20.3085 20.9606C19.1415 21.8635 17.7071 22.3527 16.2313 22.3512Z" fill="#EBE5E0"/>
<path d="M7.55518 23.3541L9.50989 18.7001L12.6747 21.9579L7.55518 23.3541Z" fill="#EBE5E0"/>
<rect x="0.5" y="0.5" width="31.1455" height="31" rx="15.5" stroke="#EBE5E0"/>
</svg>