<svg xmlns="http://www.w3.org/2000/svg" width="32" height="32" viewBox="0 0 32 32" fill="none">
<rect x="1.01709" y="0.5" width="30.1111" height="31" rx="15.0556" fill="#252422"/>
<path d="M24.3351 21.8861L21.3142 18.7783H21.3031V18.7672C21.2099 18.6713 21.0861 18.6173 20.9605 18.6173H20.9502H20.9303C20.8056 18.6173 20.6808 18.6713 20.5774 18.7672V18.7783L18.4689 20.936C18.1781 21.2461 17.6693 21.2461 17.3692 20.936L11.9074 15.3172C11.6051 15.007 11.6051 14.4842 11.9074 14.174L14.0043 12.0164C14.056 11.9626 14.0975 11.8989 14.1287 11.8346V11.8235C14.1489 11.7594 14.1599 11.7063 14.1599 11.642C14.1599 11.5032 14.1074 11.3646 14.0039 11.2682V11.2576L10.9825 8.14966C10.889 8.05376 10.754 8 10.6194 8C10.4836 8 10.35 8.05376 10.2455 8.14966L9.47683 8.95081C7.2345 11.2584 7.15152 15.8192 12.0107 20.8294C14.8761 23.7772 17.5968 24.9524 19.8083 24.9524C21.3456 24.9524 22.6334 24.3865 23.5563 23.4358L24.335 22.6346C24.429 22.5387 24.481 22.3994 24.481 22.2608C24.481 22.122 24.429 21.9832 24.335 21.8863L24.3351 21.8861Z" fill="#EBE5E0"/>
<rect x="1.01709" y="0.5" width="30.1111" height="31" rx="15.0556" stroke="#EBE5E0"/>
</svg>