<svg xmlns="http://www.w3.org/2000/svg" width="33" height="32" viewBox="0 0 33 32" fill="none">
<rect x="0.572754" y="0.5" width="31" height="31" rx="15.5" fill="#252422"/>
<path d="M8.96373 18.4966C9.83555 18.4966 10.6554 18.4908 11.4695 18.4966C11.9256 18.5024 12.1739 18.6929 12.2201 19.0566C12.272 19.5128 12.0064 19.8188 11.5099 19.8245C10.5746 19.8361 9.64502 19.8303 8.70969 19.8303C8.43833 19.8303 8.17274 19.8419 7.90138 19.8245C7.56651 19.8072 7.23741 19.7379 7.07575 19.3915C6.91409 19.0451 7.02956 18.7333 7.24896 18.4504C8.1381 17.3188 9.03301 16.1814 9.92792 15.0497C9.97989 14.9805 10.0318 14.9112 10.0838 14.8477C10.0261 14.7495 9.94524 14.7957 9.87596 14.7899C9.25241 14.7841 8.62308 14.7899 7.99953 14.7841C7.85519 14.7841 7.71085 14.7668 7.57228 14.738C7.24318 14.6629 7.04111 14.3338 7.11616 14.0105C7.16813 13.7911 7.34134 13.6121 7.56073 13.5601C7.6993 13.5255 7.84364 13.5082 7.98798 13.5082C9.01569 13.5024 10.0492 13.5024 11.0769 13.5082C11.2616 13.5024 11.4406 13.5255 11.6196 13.5717C12.0122 13.7045 12.1796 14.0682 12.0238 14.4493C11.8852 14.7784 11.6658 15.0613 11.4464 15.3442C10.69 16.3084 9.9337 17.2668 9.17735 18.2195C9.11384 18.2945 9.05611 18.3696 8.96373 18.4966V18.4966Z" fill="#EBE5E0"/>
<path d="M15.6613 15.4597C15.7998 15.2807 15.9442 15.1132 16.1809 15.067C16.637 14.9747 17.0643 15.2691 17.07 15.731C17.0874 16.8857 17.0816 18.0405 17.07 19.1952C17.07 19.4954 16.8737 19.761 16.5908 19.8476C16.3022 19.9573 15.9731 19.8707 15.7825 19.6224C15.6844 19.5012 15.644 19.4781 15.5054 19.5878C14.98 20.0151 14.3853 20.0901 13.7444 19.8823C12.7167 19.5474 12.2953 18.7449 12.1798 17.7691C12.0585 16.7125 12.4107 15.8118 13.3576 15.2576C14.1428 14.7899 14.9396 14.8303 15.6613 15.4597V15.4597ZM13.6174 17.567C13.629 17.8211 13.7098 18.0636 13.8599 18.2656C14.1717 18.6813 14.7664 18.7679 15.1878 18.4562C15.2571 18.4042 15.3206 18.3407 15.3784 18.2656C15.7017 17.8268 15.7017 17.1051 15.3784 16.6663C15.2167 16.4412 14.9627 16.3084 14.6913 16.3026C14.0562 16.2622 13.6116 16.7529 13.6174 17.567V17.567ZM19.6624 17.6017C19.6162 16.1178 20.592 15.0093 21.9776 14.9689C23.4499 14.9227 24.5238 15.91 24.57 17.3534C24.6162 18.8141 23.7213 19.8476 22.3414 19.9862C20.8345 20.1363 19.6393 19.0451 19.6624 17.6017V17.6017ZM21.1116 17.4631C21.1 17.7518 21.1866 18.0347 21.3599 18.2714C21.6774 18.6871 22.2721 18.7679 22.6878 18.4446C22.7513 18.3984 22.8033 18.3407 22.8552 18.283C23.1901 17.8442 23.1901 17.1051 22.861 16.6663C22.6993 16.4469 22.4453 16.3084 22.1739 16.3026C21.5504 16.268 21.1116 16.7414 21.1116 17.4631V17.4631ZM19.1543 16.4527C19.1543 17.3476 19.1601 18.2425 19.1543 19.1375C19.1601 19.5474 18.8368 19.888 18.4269 19.8996C18.3576 19.8996 18.2825 19.8938 18.2132 19.8765C17.9245 19.8014 17.7051 19.4954 17.7051 19.1317V14.5416C17.7051 14.2703 17.6994 14.0047 17.7051 13.7333C17.7109 13.2888 17.9938 13.0001 18.4211 13.0001C18.8599 12.9943 19.1543 13.283 19.1543 13.7449C19.1601 14.6456 19.1543 15.552 19.1543 16.4527V16.4527Z" fill="#EBE5E0"/>
<rect x="0.572754" y="0.5" width="31" height="31" rx="15.5" stroke="#EBE5E0"/>
</svg>